<svg xmlns="http://www.w3.org/2000/svg" xmlns:xlink="http://www.w3.org/1999/xlink" width="100%" height="100%" viewBox="0 0  1110 810" preserveAspectRatio="xMinYMin meet" ><rect id="svgEditorBackground" x="0" y="0" width="1110" height="810" style="fill: none; stroke: none;"/><defs id="svgEditorDefs"><marker id="arrow20-16-right" markerHeight="16" markerUnits="strokeWidth" markerWidth="20" orient="auto" refX="-3" refY="0" viewBox="-15 -5 20 20"><path d="M -15 -5 L 0 0 L -15 5 z" fill="black"/></marker></defs><path d="M142,288v0" style="fill:none;stroke:black;stroke-width:1px" id="e5_pathV"/><rect x="239.000000" y="299.000000" style="fill:white;stroke:black;stroke-width:1px" id="e8_rectangle" width="594.000000" height="276.000000"/><line id="e9_line" x1="237.00" y1="302.00" x2="830.00" y2="577.00" style="stroke:black;fill:none;stroke-width:1px"/><line id="e10_line" x1="236.00" y1="577.00" x2="830.00" y2="303.00" style="stroke:black;fill:none;stroke-width:1px"/><path d="M534,301v277" style="fill:none;stroke:black;stroke-width:1px" id="e16_pathV"/><text style="fill:black;font-family:Arial;font-size:20px" x="505" y="325" id="e17_texte"><tspan x="505">20</tspan></text><text style="fill:black;font-family:Arial;font-size:20px" x="806" y="464" id="e18_texte"><tspan x="806" id="e18_tspan">20</tspan></text><path d="M532,440v-2" style="fill:none;stroke:black;stroke-width:1px" id="e19_pathV"/><line id="e20_line" x1="237" y1="438" x2="830.00" y2="441.00" style="stroke:black;fill:none;stroke-width:1px"/><text style="fill:black;font-family:Arial;font-size:20px" x="242" y="430" id="e21_texte"><tspan x="242">-20</tspan></text><text style="fill:black;font-family:Arial;font-size:20px" x="498" y="567" id="e22_texte"><tspan x="498" id="e22_tspan">-20</tspan></text><text style="fill:black;font-family:Arial;font-size:20px" x="542" y="321" id="e23_texte">y</text><text style="fill:black;font-family:Arial;font-size:20px" x="798" y="420" id="e24_texte"><tspan x="817">x</tspan></text><text style="fill:black;font-family:Arial;font-size:20px" x="195" y="72" id="e25_texte"></text><circle id="e26_circle" cx="592.00" cy="421.00" style="fill:rosybrown;stroke:black;stroke-width:1px" r="2.07229"/><line id="e27_line" x1="534.00" y1="439.00" x2="591.00" y2="421.00" style="stroke:black;fill:none;stroke-width:1px;marker-end:url(#arrow20-16-right)"/><line id="e28_line" x1="592.00" y1="420.00" x2="591.00" y2="439.00" style="stroke:black;fill:none;stroke-width:1px;stroke-dasharray:2px,2px"/><line id="e29_line" x1="591.00" y1="419.00" x2="534.00" y2="420.00" style="stroke:black;fill:none;stroke-width:1px;stroke-dasharray:2px,2px"/><circle id="e30_circle" cx="648.00" cy="395.00" style="fill:rosybrown;stroke:black;stroke-width:1px" r="2.33163"/><line id="e31_line" x1="533.00" y1="439.00" x2="647.00" y2="396.00" style="stroke:black;fill:none;stroke-width:1px;marker-end:url(#arrow20-16-right)"/><path d="M648,393v46" style="fill:none;stroke:black;stroke-width:1px;stroke-dasharray:2px,2px" id="e33_pathV"/><path d="M648,395v2" style="fill:none;stroke:black;stroke-width:1px" id="e35_pathV"/><path d="M534,396h114" style="fill:none;stroke:black;stroke-width:1px;stroke-dasharray:2px,2px" id="e37_pathH"/></svg>